<svg version="1.1" id="icons" xmlns="http://www.w3.org/2000/svg" xmlns:xlink="http://www.w3.org/1999/xlink"
	 viewBox="0 0 417 481" style="enable-background:new 0 0 417 481;" xml:space="preserve">

<g id="SVGRepo_bgCarrier">
</g>
<g id="SVGRepo_tracerCarrier">
</g>
<g id="SVGRepo_iconCarrier">
	<path d="M364.7,103.2c-3.2-1.7-6.4-3.5-9.5-5.5c-8.9-5.9-17-12.8-24.3-20.6c-18.1-20.7-24.9-41.7-27.4-56.4h0.1
		c-2.1-12.2-1.2-20.1-1.1-20.1h-82.4v318.8c0,4.3,0,8.5-0.2,12.7c0,0.5,0,1-0.1,1.6c0,0.2,0,0.5,0,0.7c0,0.1,0,0.1,0,0.2
		c-1.8,23.2-15,44.1-35.2,55.6c-10.4,5.9-22.2,9-34.1,9c-38.4,0-69.5-31.3-69.5-70s31.1-70,69.5-70c7.3,0,14.5,1.1,21.4,3.4
		l0.1-83.9c-42.4-5.5-85.2,7-118,34.5c-14.2,12.3-26.2,27.1-35.3,43.5c-3.5,6-16.6,30.1-18.2,69.2c-1,22.2,5.7,45.2,8.9,54.7v0.2
		c2,5.6,9.7,24.7,22.4,40.8C42,434.4,54,445.7,67.5,455.2V455l0.2,0.2c39.9,27.1,84.2,25.3,84.2,25.3c7.7-0.3,33.3,0,62.5-13.8
		c32.3-15.3,50.7-38.1,50.7-38.1c11.8-13.6,21.1-29.2,27.6-45.9c7.5-19.6,10-43.1,10-52.5V161c1,0.6,14.3,9.4,14.3,9.4
		s19.2,12.3,49.1,20.3c21.5,5.7,50.4,6.9,50.4,6.9v-81.8C406.4,116.9,385.8,113.7,364.7,103.2z"/>
</g>
</svg>
