<svg version="1.1" id="Layer_1" xmlns="http://www.w3.org/2000/svg" xmlns:xlink="http://www.w3.org/1999/xlink" x="0px" y="0px"
	 viewBox="0 0 121.48 85.04" style="enable-background:new 0 0 121.48 85.04;" xml:space="preserve">
<style type="text/css">
	.st0{display:none;}
	.st1{display:inline;}
	.st2{display:inline;}
	.st3{display:none;}
</style>
<g class="st0">
	<path class="st1" d="M118.95,13.28c-1.4-5.23-5.51-9.34-10.74-10.74C98.73,0,60.74,0,60.74,0S22.75,0,13.28,2.54
		C8.05,3.94,3.94,8.05,2.54,13.28C0,22.75,0,42.52,0,42.52s0,19.77,2.54,29.24c1.4,5.23,5.51,9.34,10.74,10.74
		c9.47,2.54,47.46,2.54,47.46,2.54s37.99,0,47.46-2.54c5.23-1.4,9.34-5.51,10.74-10.74c2.54-9.47,2.54-29.24,2.54-29.24
		S121.48,22.75,118.95,13.28z"/>
	<polygon class="st2" points="48.59,60.74 80.16,42.52 48.59,24.3 	"/>
</g>
<path class="st3" d="M147.28,54.81L133.2,6.08h11.99l5.39,24.76l0.87,4c0.52,2.08,0.98,4.14,1.39,6.17h0.43l2.35-10.25l5.82-24.67
	h11.82l-13.9,48.74v24.24h-12.08L147.28,54.81L147.28,54.81z"/>
<path class="st3" d="M176.34,77.4c-2.4-1.62-4.11-4.14-5.13-7.56c-1.01-3.42-1.52-7.96-1.52-13.64v-7.73
	c0-5.73,0.58-10.34,1.74-13.81c1.16-3.48,2.97-6.01,5.43-7.6c2.46-1.59,5.69-2.39,9.69-2.39c3.94,0,7.09,0.81,9.47,2.43
	c2.37,1.62,4.11,4.16,5.21,7.6c1.1,3.45,1.65,8.04,1.65,13.77v7.73c0,5.68-0.54,10.24-1.61,13.68c-1.07,3.45-2.81,5.97-5.21,7.56
	c-2.4,1.59-5.66,2.39-9.77,2.39C182.06,79.84,178.74,79.02,176.34,77.4z M189.81,69.06c0.67-1.74,1-4.57,1-8.51v-16.6
	c0-3.82-0.33-6.62-1-8.38c-0.67-1.77-1.84-2.65-3.52-2.65c-1.62,0-2.77,0.88-3.43,2.65c-0.67,1.77-1,4.56-1,8.38v16.59
	c0,3.94,0.32,6.78,0.96,8.51c0.64,1.74,1.79,2.61,3.48,2.61C187.97,71.67,189.14,70.8,189.81,69.06z"/>
<path class="st3" d="M241.37,25.76v53.26h-9.38l-1.04-6.52h-0.26c-2.43,4.92-6.14,7.38-11.12,7.38c-3.59,0-6.24-1.14-7.95-3.43
	c-1.71-2.29-2.56-5.92-2.56-10.9V25.76h11.99v39.1c0,2.32,0.26,4,0.78,5.04s1.39,1.56,2.61,1.56c1.04,0,2.01-0.33,2.91-1
	c0.9-0.67,1.58-1.55,2.04-2.65V25.76H241.37z"/>
<path class="st3" d="M274.03,15.86h-11.64v63.16h-12.16V15.86h-11.64V6.13h35.45L274.03,15.86L274.03,15.86z"/>
<path class="st3" d="M303.2,25.76v53.26h-9.38l-1.04-6.52h-0.26c-2.43,4.92-6.14,7.38-11.12,7.38c-3.59,0-6.24-1.14-7.95-3.43
	c-1.71-2.29-2.56-5.92-2.56-10.9V25.76h11.99v39.1c0,2.32,0.26,4,0.78,5.04s1.39,1.56,2.61,1.56c1.04,0,2.01-0.33,2.91-1
	s1.58-1.55,2.04-2.65V25.76H303.2z"/>
<path class="st3" d="M360.71,56.43v2.69c0,3.42,0.1,5.98,0.3,7.69c0.2,1.71,0.62,2.95,1.26,3.74c0.64,0.78,1.62,1.17,2.95,1.17
	c1.79,0,3.03-0.7,3.69-2.09c0.67-1.39,1.03-3.71,1.09-6.95l10.34,0.61c0.06,0.46,0.09,1.1,0.09,1.91c0,4.92-1.35,8.6-4.04,11.03
	s-6.5,3.65-11.42,3.65c-5.91,0-10.05-1.85-12.42-5.56c-2.38-3.71-3.56-9.44-3.56-17.2v-9.3c0-7.99,1.23-13.83,3.69-17.51
	s6.67-5.52,12.64-5.52c4.11,0,7.27,0.75,9.47,2.26s3.75,3.85,4.65,7.04s1.35,7.59,1.35,13.21v9.12h-20.08V56.43z M362.23,34.01
	c-0.61,0.75-1.01,1.98-1.22,3.69c-0.2,1.71-0.3,4.3-0.3,7.78v3.82h8.77v-3.82c0-3.42-0.12-6.01-0.35-7.78
	c-0.23-1.77-0.65-3.01-1.26-3.74c-0.61-0.72-1.55-1.09-2.82-1.09C363.78,32.88,362.84,33.26,362.23,34.01z"/>
<path class="st3" d="M342.86,34.27c-0.73-3.36-1.9-5.79-3.52-7.3c-1.62-1.51-3.85-2.26-6.69-2.26c-2.2,0-4.26,0.62-6.17,1.87
	s-3.39,2.88-4.43,4.91h-0.09V3.43h-11.29v75.58h9.64l1.22-5.04h0.26c0.93,1.8,2.32,3.21,4.17,4.26c1.85,1.04,3.91,1.56,6.17,1.56
	c4.05,0,7.04-1.87,8.95-5.6c1.91-3.74,2.87-9.57,2.87-17.51v-8.43C343.95,42.3,343.58,37.63,342.86,34.27z M331.87,55.99
	c0,3.88-0.16,6.92-0.48,9.12s-0.85,3.77-1.61,4.69c-0.75,0.93-1.77,1.39-3.04,1.39c-0.99,0-1.9-0.23-2.74-0.69s-1.52-1.16-2.04-2.09
	V38.18c0.4-1.45,1.1-2.64,2.09-3.56c0.98-0.93,2.06-1.39,3.21-1.39c1.22,0,2.16,0.48,2.82,1.43c0.67,0.96,1.13,2.56,1.39,4.82
	s0.39,5.47,0.39,9.64L331.87,55.99L331.87,55.99z"/>
<g>
	<path class="st4" d="M118.95,13.28c-1.4-5.23-5.51-9.34-10.74-10.74C98.73,0,60.74,0,60.74,0S22.75,0,13.28,2.54
		C8.05,3.94,3.94,8.05,2.54,13.28C0,22.75,0,42.52,0,42.52s0,19.77,2.54,29.24c1.4,5.23,5.51,9.34,10.74,10.74
		c9.47,2.54,47.46,2.54,47.46,2.54s37.99,0,47.46-2.54c5.23-1.4,9.34-5.51,10.74-10.74c2.54-9.47,2.54-29.24,2.54-29.24
		S121.48,22.75,118.95,13.28z M48.59,60.74V24.3l31.56,18.22L48.59,60.74z"/>
</g>
</svg>
